<?xml version="1.0" encoding="utf-8"?>
<!-- Generator: Adobe Illustrator 19.0.0, SVG Export Plug-In . SVG Version: 6.00 Build 0)  -->
<svg version="1.1" id="图层_1" xmlns="http://www.w3.org/2000/svg" xmlns:xlink="http://www.w3.org/1999/xlink" x="0px" y="0px"
	 viewBox="-373 276.7 94.4 42.6" style="enable-background:new -373 276.7 94.4 42.6;" xml:space="preserve">
<style type="text/css">
	.st0{fill:#FFFFFF;}
</style>
<g id="XMLID_435_">
	<g id="XMLID_645_">
		<g id="XMLID_679_">
			<path id="XMLID_695_" class="st0" d="M-360.5,277.6c-0.5,1.5-1.1,3.1-1.9,4.6V299h-2.1v-13.5c-0.4,0.6-0.8,1.1-1.3,1.5
				c-0.3-0.4-0.7-1.1-1.2-1.5c0.2,1.4,0.3,2.8,0.3,4.2c0,3.3-0.2,6.7-1.1,7.9c-0.3,0.4-0.7,0.7-1.3,0.8c-0.7,0.2-1.6,0.2-2.5,0.1
				c0-0.6-0.2-1.4-0.6-2c1,0.1,1.8,0.1,2.2,0c0.3,0,0.5-0.1,0.7-0.4c0.5-0.7,0.7-3.6,0.7-6.6v-0.3c-0.9,1.5-2.1,2.9-3.2,3.8
				c-0.2-0.5-0.7-1.4-1.1-1.8c1.5-1.1,3.2-3.3,4.1-5.2c-0.1-1-0.3-1.9-0.6-2.9c-0.8,0.9-1.7,1.8-2.6,2.4c-0.2-0.6-0.7-1.5-1-2
				c0.9-0.6,1.8-1.4,2.7-2.4c-0.5-1-1.3-2-2.2-2.9l1.5-1.1c0.8,0.8,1.5,1.6,2,2.4c0.6-0.8,1.1-1.6,1.5-2.4l1.5,1
				c-0.5,1-1.2,2.1-2,3.2c0.5,1.2,0.8,2.3,1,3.6c2-2.1,3.6-5.4,4.3-8.2L-360.5,277.6z M-354.7,293.1c0.8,1.9,2.3,3.6,4.1,4.3
				c-0.4,0.4-1,1.1-1.3,1.6c-1.7-0.9-3-2.4-4-4.3c-0.7,1.6-2,3.2-4.5,4.5c-0.3-0.5-0.9-1.1-1.4-1.5c2.7-1.3,3.9-3,4.3-4.6h-4.1v-1.9
				h4.4c0-0.2,0-0.5,0-0.7v-2.1h-1.9c-0.4,0.9-0.9,1.6-1.4,2.3c-0.4-0.3-1.1-0.8-1.5-1c1.1-1.4,1.9-3.6,2.4-5.3l2,0.5
				c-0.2,0.5-0.4,1.1-0.6,1.7h6.5v1.9h-3.4v2.1c0,0.2,0,0.4,0,0.6h4.2v1.9H-354.7z M-355.1,282.5c0.1-0.8,0.2-1.8,0.3-2.6h-5V278
				h5.3l0.4-0.1l1.5,0.1c-0.1,1.4-0.3,3-0.4,4.4h2.1v1.9h-10.4v-1.9L-355.1,282.5L-355.1,282.5z"/>
			<path id="XMLID_688_" class="st0" d="M-342.8,292.9h-3.5v2.3h-1.8v-16.4h5.2L-342.8,292.9L-342.8,292.9z M-346.3,281v9.7h1.7V281
				C-344.6,281-346.3,281-346.3,281z M-336,278.5c-0.4,2-1,4.4-1.6,6.8c1.2,2.2,1.7,3.8,1.7,5.3c0,1.4-0.3,2.6-0.9,3.1
				c-0.3,0.2-0.6,0.4-1,0.5c-0.4,0-0.8,0-1.3,0c0-0.5-0.1-1.2-0.4-1.8c0.4,0,0.7,0,0.9,0s0.4,0,0.6-0.2c0.3-0.3,0.4-1.1,0.4-1.8
				c0-1.3-0.5-2.7-1.6-4.9c0.5-2,0.8-4,1.2-5.8h-1.8v19.2h-1.8v-21.1h4l0.3-0.1L-336,278.5z M-326.8,280.2h-1.1v16.1
				c0,1.1-0.2,1.8-0.9,2.1c-0.7,0.4-1.8,0.4-3.4,0.4c-0.1-0.6-0.4-1.6-0.7-2.1c1.2,0,2.4,0,2.7,0c0.4,0,0.5-0.1,0.5-0.5v-16.1h-6.1
				V278h9V280.2z M-334,292.9v1.6h-1.5v-11.9h4.6v10.3H-334z M-334,284.6v6.3h1.5v-6.3H-334z"/>
			<path id="XMLID_685_" class="st0" d="M-305.3,287c-1,0.8-2.2,1.7-3.4,2.5c1,3,3.1,5.6,6,6.7c-0.5,0.4-1.2,1.2-1.5,1.8
				c-3-1.4-5-4.1-6.3-7.4c-0.3,0.2-0.6,0.4-1,0.6c0.8,3,0.2,5.8-1.1,6.8c-0.8,0.7-1.5,1-2.6,1c-0.6,0-1.3,0-2,0
				c0-0.6-0.2-1.5-0.6-2.1c0.8,0.1,1.6,0.1,2.1,0.1c0.6,0,1-0.1,1.4-0.5c0.6-0.5,0.9-1.8,0.8-3.4c-2.7,2-6.7,3.9-10,4.9
				c-0.2-0.6-0.7-1.4-1.2-1.8c3.8-0.9,8.4-3,10.8-5.1c-0.1-0.5-0.3-0.9-0.5-1.3c-2.4,1.6-6,3.2-8.8,4.1c-0.3-0.5-0.7-1.3-1.1-1.8
				c3-0.7,6.9-2.3,9-3.8c-0.3-0.4-0.6-0.8-0.9-1.2c-2.1,1.2-4.5,2.1-6.8,2.7c-0.2-0.4-0.8-1.3-1.2-1.8c2.9-0.6,5.9-1.7,8.1-3.1h-4.9
				V283h13.6v1.9h-5.7c-0.5,0.4-1,0.8-1.6,1.2c1,1,1.8,2.1,2.3,3.3c1.7-1.2,3.6-2.6,4.9-3.8L-305.3,287z M-321.6,284.2h-2.2v-5.1
				h8.8c-0.2-0.6-0.5-1.1-0.7-1.6l2.3-0.7c0.4,0.7,0.8,1.5,1.1,2.2h8.7v5.1h-2.3V281h-15.7V284.2L-321.6,284.2z"/>
			<path id="XMLID_680_" class="st0" d="M-280.3,283.5c-0.5,3.7-1.4,6.7-2.8,9.2c1.2,1.9,2.6,3.4,4.5,4.4c-0.5,0.5-1.2,1.3-1.6,1.9
				c-1.7-1-3.1-2.5-4.2-4.2c-1.4,1.7-3.1,3.2-5.3,4.3c-0.2-0.5-0.9-1.5-1.3-2c2.4-1.1,4.1-2.6,5.4-4.5c-0.8-1.8-1.4-3.7-1.9-5.9
				c-0.4,0.8-0.9,1.6-1.4,2.3c-0.3-0.3-0.9-0.9-1.4-1.3c-1,1.1-2.3,2.3-3.5,3.1v0.9c1.5-0.1,3.1-0.3,4.7-0.4v1.9l-4.7,0.5v3
				c0,1-0.2,1.6-0.9,1.8c-0.7,0.3-1.8,0.3-3.3,0.3c-0.1-0.6-0.4-1.4-0.7-1.9c1.1,0,2.1,0,2.4,0c0.3,0,0.4-0.1,0.4-0.3v-2.7l-4.7,0.5
				l-0.2-2c1.4-0.1,3.1-0.3,5-0.4v-1.6l0,0c0.8-0.5,1.6-1.2,2.4-1.9h-2.1c-1.2,1.1-2.5,2-3.9,2.8c-0.3-0.5-1.1-1.3-1.5-1.7
				c0.8-0.4,1.5-0.8,2.2-1.3v-1.6h2c0.5-0.5,1.1-1,1.5-1.5h-5.6v-1.9h3.9v-2h-3v-1.9h3V277h2.1v2.4h2.7v1.7c0.6-1.1,1.2-2.2,1.6-3.4
				l2.1,0.6c-0.7,1.8-1.6,3.6-2.6,5.1h1.8v1.9c1.2-2.3,2-5.2,2.4-8.2l2.3,0.4c-0.2,1.4-0.5,2.7-0.9,4h6.7v2.1L-280.3,283.5
				L-280.3,283.5z M-293.6,283.3c0.5-0.6,0.9-1.3,1.3-2h-2.5v2H-293.6z M-290.6,287.3c0.5-0.6,0.9-1.3,1.2-2h-3.2
				c-0.4,0.5-0.8,1-1.3,1.5h2l0.4-0.1L-290.6,287.3z M-286.1,283.5c0.4,2.4,1,4.7,1.8,6.7c0.8-1.9,1.4-4.1,1.7-6.7
				C-282.6,283.5-286.1,283.5-286.1,283.5z"/>
		</g>
		<g id="XMLID_646_">
			<path id="XMLID_674_" class="st0" d="M-358,316.5c-0.7,1-1.9,2.1-3,2.8c0-0.1-0.1-0.2-0.2-0.2c1.1-0.6,2.3-1.7,3-2.6H-358z
				 M-353.5,311v4.3h-6.6V311H-353.5z M-359.8,314.9h6v-3.7h-6V314.9z M-355.5,316.4c1.1,0.8,2.4,1.9,3,2.7l-0.3,0.2
				c-0.6-0.7-1.9-1.9-3-2.7L-355.5,316.4z"/>
			<path id="XMLID_668_" class="st0" d="M-347,310.3c-0.2,0.7-0.5,1.3-0.8,2v6.9h-0.3v-6.3c-0.4,0.7-0.8,1.4-1.3,1.9
				c0-0.1-0.2-0.2-0.2-0.2c0.9-1,1.8-2.6,2.3-4.3H-347z M-346.5,318.1v0.6h-0.3v-4h1.2v-2.2h-1.6v-0.3h1.6v-2h0.3v2h1.6v0.3h-1.6
				v2.2h1.2v3.4H-346.5z M-346.5,315v2.8h2.2V315H-346.5z M-340.8,312.5c-0.2,1.8-0.6,3.2-1.2,4.3c0.4,0.9,1,1.6,1.8,2.1
				c-0.1,0.1-0.2,0.2-0.2,0.3c-0.8-0.5-1.4-1.3-1.8-2.1c-0.5,0.8-1.2,1.5-2.1,2.1c0-0.1-0.2-0.2-0.2-0.2c1-0.5,1.7-1.3,2.2-2.2
				c-0.5-1.2-0.8-2.5-0.9-3.6c-0.2,0.5-0.4,1-0.6,1.4c-0.1,0-0.2-0.1-0.3-0.1c0.7-1.1,1.1-2.6,1.3-4.3l0.3,0.1
				c-0.1,0.7-0.3,1.4-0.4,2h2.6v0.3h-0.5L-340.8,312.5L-340.8,312.5z M-343,312.6c0.1,1.3,0.4,2.7,0.9,3.9c0.5-1.1,0.9-2.4,1.1-4
				L-343,312.6L-343,312.6z"/>
			<path id="XMLID_661_" class="st0" d="M-328.5,311.4v0.3h-8.7v-0.3h4.3c-0.1-0.3-0.2-0.8-0.4-1.1h0.2c0.1,0.4,0.3,0.8,0.4,1.2
				L-328.5,311.4L-328.5,311.4z M-328.9,318.7c0,0.2-0.1,0.3-0.2,0.4c-0.2,0-0.5,0-1.1,0c0-0.1-0.1-0.2-0.1-0.3c0.5,0,0.9,0,1,0
				c0.1,0,0.1,0,0.1-0.1v-3.5h-7.2v3.9h-0.3v-4.2h7.8V318.7z M-330.1,312.4v1.9h-5.3v-1.9H-330.1z M-330.4,312.7h-4.8v1.3h4.8V312.7
				z M-330.8,317.9h-3.8v0.6h-0.3V316h4.1V317.9z M-334.6,316.4v1.3h3.5v-1.3H-334.6z"/>
			<path id="XMLID_654_" class="st0" d="M-321.8,316.9v0.3c-1.2,0.3-2.5,0.7-3.4,0.9l-0.1-0.3c0.5-0.1,1.1-0.3,1.9-0.5
				c0.3-1.1,0.6-3.1,0.8-4.4l0.3,0.1c-0.2,1.3-0.5,3.1-0.8,4.2L-321.8,316.9z M-321.9,312.5h-3.3v-0.3h3.3V312.5z M-324.3,317
				c0-1-0.3-2.6-0.6-3.8h0.3c0.3,1.2,0.5,2.8,0.6,3.8H-324.3z M-323.4,311.9c-0.2-0.4-0.5-1-0.8-1.5l0.3-0.1
				c0.3,0.5,0.6,1.1,0.8,1.5L-323.4,311.9z M-319,314.2c-0.1,0.4-0.2,0.9-0.3,1.2h2.7v3.5c0,0.2,0,0.3-0.2,0.3
				c-0.2,0.1-0.4,0.1-0.9,0.1c0-0.1-0.1-0.2-0.1-0.3c0.4,0,0.7,0,0.8,0s0.1,0,0.1-0.1v-3.2h-1.3v3.4h-0.3v-3.4h-1.3v3.4h-0.3v-3.4
				h-1.3v3.5h-0.3v-3.8h2c0.1-0.3,0.2-0.8,0.2-1.2h-2.7v-0.3h5.7v0.3H-319z M-316.7,312.9h-4.8v-2.2h0.3v1.9h1.9v-2.4h0.3v2.4h2.1
				v-1.9h0.3L-316.7,312.9L-316.7,312.9z"/>
			<path id="XMLID_651_" class="st0" d="M-305.5,313.9c-0.5,0.4-1.2,0.9-1.8,1.3c0.5,1.5,1.6,2.8,3,3.3c-0.1,0.1-0.2,0.2-0.2,0.2
				c-1.4-0.6-2.5-1.8-3-3.4c-0.2,0.1-0.5,0.3-0.7,0.4c0.4,1.4,0.1,2.7-0.4,3.1c-0.3,0.2-0.5,0.2-0.9,0.2c-0.2,0-0.6,0-0.9,0
				c0-0.1,0-0.2-0.1-0.3c0.4,0,0.7,0.1,0.9,0.1c0.3,0,0.5,0,0.7-0.2c0.5-0.3,0.7-1.3,0.5-2.4c-1.1,0.9-2.9,1.9-4.5,2.4
				c0-0.1-0.1-0.2-0.2-0.3c1.6-0.4,3.6-1.4,4.6-2.4c-0.1-0.4-0.2-0.7-0.4-1c-1,0.7-2.6,1.5-3.8,1.9c0-0.1-0.1-0.2-0.2-0.3
				c1.3-0.3,3-1.1,3.9-1.9c-0.2-0.3-0.4-0.6-0.7-0.9c-0.9,0.5-2,1-3,1.3c0-0.1-0.1-0.2-0.2-0.3c1.3-0.4,2.9-1,3.8-1.8h-2.7v-0.3h6
				v0.3h-2.8c-0.2,0.2-0.5,0.4-0.8,0.6c0.6,0.5,0.9,1.2,1.2,1.9c0.8-0.5,1.9-1.3,2.5-1.8L-305.5,313.9z M-312.5,313h-0.3v-1.8h3.9
				c-0.1-0.3-0.3-0.7-0.5-0.9l0.3-0.1c0.2,0.3,0.5,0.7,0.6,1h3.8v1.8h-0.3v-1.6h-7.5V313z"/>
			<path id="XMLID_647_" class="st0" d="M-296.4,316.5c-0.8,0.1-1.6,0.2-2.4,0.3v2c0,0.2-0.1,0.3-0.3,0.4c-0.2,0.1-0.6,0.1-1.3,0.1
				c0-0.1-0.1-0.2-0.1-0.3c0.6,0,1,0,1.2,0c0.1,0,0.2,0,0.2-0.2v-1.9l-2.2,0.3v-0.3c0.6-0.1,1.4-0.2,2.2-0.3v-0.9l0,0
				c0.5-0.3,1.1-0.7,1.5-1.1h-1.5c-0.6,0.6-1.2,1.1-1.9,1.5c0-0.1-0.2-0.2-0.3-0.2c0.6-0.3,1.2-0.8,1.7-1.3h-1v-0.3h1.3
				c0.3-0.3,0.6-0.6,0.9-1h-2.9V313h2v-1.3h-1.5v-0.3h1.5v-1.2h0.3v1.2h1.5v0.3h-1.5v1.3h0.9c0.6-0.8,1-1.6,1.4-2.6l0.3,0.1
				c-0.4,0.9-0.8,1.7-1.3,2.5h1.3v0.3h-1.5c-0.3,0.3-0.5,0.7-0.8,1h1.5h0.1l0.2,0.1c-0.4,0.5-1.1,1-1.7,1.4v0.8
				c0.8-0.1,1.6-0.2,2.4-0.3v0.2H-296.4z M-293,312.4c-0.3,1.7-0.7,3.1-1.4,4.3c0.5,1,1.2,1.8,2.1,2.3c-0.1,0.1-0.2,0.2-0.2,0.2
				c-0.8-0.5-1.5-1.3-2.1-2.3c-0.6,0.9-1.4,1.7-2.5,2.3c0-0.1-0.1-0.2-0.2-0.3c1.1-0.6,2-1.3,2.6-2.3c-0.5-1.1-0.9-2.3-1.1-3.6
				c-0.3,0.7-0.6,1.3-0.9,1.8c-0.1-0.1-0.2-0.1-0.3-0.2c0.8-1.1,1.3-2.7,1.6-4.4h0.3c-0.1,0.6-0.3,1.3-0.5,1.8h3.2v0.3L-293,312.4
				L-293,312.4z M-295.6,312.4C-295.6,312.4-295.6,312.5-295.6,312.4c0.2,1.5,0.6,2.8,1.1,4c0.6-1.1,1-2.4,1.2-4H-295.6z"/>
		</g>
	</g>
</g>
</svg>
