<?xml version="1.0" encoding="utf-8"?>
<!-- Generator: Adobe Illustrator 19.0.0, SVG Export Plug-In . SVG Version: 6.00 Build 0)  -->
<svg version="1.1" id="图层_1" xmlns="http://www.w3.org/2000/svg" xmlns:xlink="http://www.w3.org/1999/xlink" x="0px" y="0px"
	 viewBox="-394 305.3 52 14" style="enable-background:new -394 305.3 52 14;" xml:space="preserve">
<style type="text/css">
	.st0{fill:#F2F2F2;}
	.st1{fill:#00AF73;}
</style>
<g id="XMLID_874_">
	<path id="XMLID_53_" class="st0" d="M-388.8,306.8c-0.4,1.1-0.9,2.5-1.3,3.6c0.9,1.1,1.1,2.1,1.1,3c0,0.8-0.2,1.4-0.6,1.7
		c-0.2,0.2-0.4,0.2-0.8,0.3c-0.3,0-0.6,0-0.9,0c0-0.3-0.1-0.8-0.3-1.1c0.3,0,0.5,0,0.7,0c0.2,0,0.3,0,0.4-0.1
		c0.2-0.2,0.3-0.5,0.3-0.9c0-0.7-0.2-1.6-1.1-2.7c0.3-0.9,0.7-2.1,1-3h-1.7v11.1h-1.1v-12.3h3.3l0.2-0.1L-388.8,306.8z
		 M-381.3,313.8c-0.7,0.5-1.5,1.1-2.2,1.5c0.6,0.9,1.5,1.7,2.5,2.1c-0.3,0.3-0.7,0.8-0.9,1.1c-2.1-1.1-3.4-3.2-4-6h-1.1v4.3l2.2-0.5
		c0,0.4,0,0.9,0.1,1.2c-2.8,0.7-3.3,0.9-3.6,1.1c-0.1-0.3-0.4-0.8-0.6-1.1c0.2-0.1,0.6-0.5,0.6-1.1v-10h6.2v6.2h-2.7
		c0.2,0.6,0.4,1.3,0.7,1.8c0.7-0.5,1.4-1.1,1.9-1.5L-381.3,313.8z M-387,307.5v1.4h3.7v-1.4H-387z M-387,311.5h3.7V310h-3.7V311.5z"
		/>
	<path id="XMLID_58_" class="st0" d="M-372,316.1h-3.3v1.1h-1.2v-10.3h4.5V316.1z M-375.3,308.1v2.8h2.1v-2.8H-375.3z M-373.3,314.9
		V312h-2.1v2.9H-373.3z M-364.1,309.8h-1.6v7c0,0.9-0.2,1.2-0.8,1.4c-0.6,0.2-1.5,0.3-2.9,0.2c-0.1-0.4-0.3-1-0.5-1.3
		c1,0,2.1,0,2.4,0s0.4-0.1,0.4-0.4v-7h-4.3v-1.3h4.3v-2.6h1.3v2.6h1.6v1.4H-364.1z M-369,314.7c-0.4-0.8-1.3-2.3-2.1-3.3l1.1-0.6
		c0.7,1,1.7,2.4,2.1,3.2L-369,314.7z"/>
	<path id="XMLID_64_" class="st1" d="M-357.6,315.1h-2.5v-0.9h2.5v-1h-2.5v-0.9h2.1l-2.5-4.9h1.7l1.1,2.5c0.3,0.7,0.6,1.4,0.9,2.1
		h0.1c0.3-0.7,0.6-1.4,0.9-2.1l1.1-2.5h1.6l-2.5,4.9h2.1v0.9h-2.5v1h2.5v0.9h-2.5v2.4h-1.6L-357.6,315.1L-357.6,315.1z"/>
	<path id="XMLID_66_" class="st1" d="M-349.5,312.4c0-3.6,1.3-5.3,3.3-5.3s3.3,1.8,3.3,5.3c0,3.6-1.3,5.4-3.3,5.4
		C-348,317.7-349.5,315.9-349.5,312.4z M-344.3,312.4c0-3-0.7-4-1.8-4c-1.1,0-1.8,1.1-1.8,4c0,3,0.7,4.1,1.8,4.1
		C-345,316.5-344.3,315.3-344.3,312.4z"/>
</g>
</svg>
