<?xml version="1.0" encoding="utf-8"?>
<!-- Generator: Adobe Illustrator 19.0.0, SVG Export Plug-In . SVG Version: 6.00 Build 0)  -->
<svg version="1.1" id="图层_1" xmlns="http://www.w3.org/2000/svg" xmlns:xlink="http://www.w3.org/1999/xlink" x="0px" y="0px"
	 viewBox="0 0 360 266" style="enable-background:new 0 0 360 266;" xml:space="preserve">
<style type="text/css">
	.st0{clip-path:url(#XMLID_15_);}
	.st1{fill:url(#XMLID_16_);}
	.st2{fill:url(#XMLID_17_);}
	.st3{fill-rule:evenodd;clip-rule:evenodd;fill:none;}
	.st4{fill:url(#XMLID_18_);}
	.st5{fill:#D9EDE3;}
	.st6{fill:url(#XMLID_19_);}
	.st7{clip-path:url(#XMLID_20_);fill:url(#XMLID_21_);}
	.st8{fill:url(#XMLID_22_);}
	.st9{fill:url(#XMLID_23_);}
</style>
<g id="XMLID_86_">
	<defs>
		<rect id="XMLID_122_" width="360" height="266"/>
	</defs>
	<clipPath id="XMLID_15_">
		<use xlink:href="#XMLID_122_"  style="overflow:visible;"/>
	</clipPath>
	<g id="XMLID_119_" class="st0">
		<g id="XMLID_120_">
			<linearGradient id="XMLID_16_" gradientUnits="userSpaceOnUse" x1="74.5654" y1="139.1674" x2="167.4074" y2="85.5651">
				<stop  offset="0" style="stop-color:#B3D4C6"/>
				<stop  offset="0.1164" style="stop-color:#9FC6BC"/>
				<stop  offset="0.3912" style="stop-color:#75A9A6"/>
				<stop  offset="0.6398" style="stop-color:#569496"/>
				<stop  offset="0.8511" style="stop-color:#44888C"/>
				<stop  offset="1" style="stop-color:#3D8389"/>
			</linearGradient>
			<path id="XMLID_1838_" class="st1" d="M84.2,155.9c27.8-13.5,54.3-114.2,55.7-117.8c1.4-3.6,6.1,113.4,23,113.3
				C168.4,151.4,84.2,155.9,84.2,155.9z"/>
			<linearGradient id="XMLID_17_" gradientUnits="userSpaceOnUse" x1="-16.0061" y1="229.0193" x2="67.2746" y2="145.7385">
				<stop  offset="0" style="stop-color:#B3D4C6"/>
				<stop  offset="0.1497" style="stop-color:#9DC5BB"/>
				<stop  offset="0.5417" style="stop-color:#69A1A0"/>
				<stop  offset="0.8372" style="stop-color:#498B8F"/>
				<stop  offset="1" style="stop-color:#3D8389"/>
			</linearGradient>
			<path id="XMLID_1837_" class="st2" d="M-50.6,194.4c27.8-13.5,84.1-77.2,85.5-80.8s32.7,84,49.6,83.9
				C90,197.5-50.6,194.4-50.6,194.4z"/>
			<rect id="XMLID_1804_" x="19" y="-396.7" class="st3" width="360" height="566"/>
			<linearGradient id="XMLID_18_" gradientUnits="userSpaceOnUse" x1="325.7166" y1="106.4601" x2="141.7146" y2="212.6937">
				<stop  offset="0.4955" style="stop-color:#3D8389"/>
				<stop  offset="0.5849" style="stop-color:#629C9E"/>
				<stop  offset="0.7222" style="stop-color:#95BFBC"/>
				<stop  offset="0.8422" style="stop-color:#BAD8D1"/>
				<stop  offset="0.9388" style="stop-color:#D1E7DE"/>
				<stop  offset="1" style="stop-color:#D9EDE3"/>
			</linearGradient>
			<path id="XMLID_1809_" class="st4" d="M115.5,82.8c10.5-0.2,6.4,4.4,11.8,4.5c5.3,0.1,7.4,7.9,15.4,10.5s20-0.3,28-0.4
				c8,0,49.7,16.3,99,20.2c49.3,3.9,62.7,3.2,89,45.9c11.9,19.2,29.3,81.8-44.7,81.2s-150.3-2.8-174-35.5S115.5,82.8,115.5,82.8z"/>
			<path id="XMLID_1808_" class="st5" d="M184.5,62.9c10.5-0.2,6.4,4.4,11.8,4.5c5.3,0.1,10.7-3.8,18.7-1.1
				c8,2.6,16.7,11.3,24.7,11.3c8,0,49.7,16.3,99,20.2c49.3,3.9,53.7-4.7,80,37.9c11.9,19.2-20.7,88.3-94.7,87.6s-58-3.2-81.7-35.9
				S184.5,62.9,184.5,62.9z"/>
			<linearGradient id="XMLID_19_" gradientUnits="userSpaceOnUse" x1="11.534" y1="202.5073" x2="141.2631" y2="127.6082">
				<stop  offset="0" style="stop-color:#B3D4C6"/>
				<stop  offset="0.2837" style="stop-color:#B0D2C5"/>
				<stop  offset="0.4587" style="stop-color:#A8CCC0"/>
				<stop  offset="0.6043" style="stop-color:#99C2B9"/>
				<stop  offset="0.7337" style="stop-color:#85B4AE"/>
				<stop  offset="0.8524" style="stop-color:#6AA2A0"/>
				<stop  offset="0.9618" style="stop-color:#4A8C90"/>
				<stop  offset="1" style="stop-color:#3D8389"/>
			</linearGradient>
			<path id="XMLID_1807_" class="st6" d="M-1,180.8c40-19.4,114-92.9,116-98s13.7,98.3,38,98C161,180.7-1,180.8-1,180.8z"/>
			<g id="XMLID_1803_">
				<defs>
					<rect id="XMLID_1805_" x="95.3" y="-112.8" width="297.3" height="325.3"/>
				</defs>
				<clipPath id="XMLID_20_">
					<use xlink:href="#XMLID_1805_"  style="overflow:visible;"/>
				</clipPath>
				
					<radialGradient id="XMLID_21_" cx="852.9258" cy="134.8007" r="125.0037" gradientTransform="matrix(1.6198 0 0 1.6142 -1036.6045 -173.8793)" gradientUnits="userSpaceOnUse">
					<stop  offset="0" style="stop-color:#FAFAFA;stop-opacity:0.8"/>
					<stop  offset="0.729" style="stop-color:#FAFAFA;stop-opacity:3.373951e-002"/>
					<stop  offset="0.7611" style="stop-color:#FAFAFA;stop-opacity:0"/>
				</radialGradient>
				<rect id="XMLID_1806_" x="182.6" y="-118.1" class="st7" width="324.7" height="323.6"/>
			</g>
			<linearGradient id="XMLID_22_" gradientUnits="userSpaceOnUse" x1="109.728" y1="229.1472" x2="229.7521" y2="109.1231">
				<stop  offset="0" style="stop-color:#B3D4C6"/>
				<stop  offset="0.2893" style="stop-color:#B0D2C5"/>
				<stop  offset="0.4639" style="stop-color:#A8CCC0"/>
				<stop  offset="0.608" style="stop-color:#9AC3B9"/>
				<stop  offset="0.7356" style="stop-color:#85B5AE"/>
				<stop  offset="0.8522" style="stop-color:#6BA3A1"/>
				<stop  offset="0.9593" style="stop-color:#4B8D90"/>
				<stop  offset="1" style="stop-color:#3D8389"/>
			</linearGradient>
			<path id="XMLID_1823_" class="st8" d="M59.9,179.3C99.9,159.9,181.1,68,183.1,62.9c2-5.1,47.2,121.1,71.5,120.9
				C262.6,183.7,59.9,179.3,59.9,179.3z"/>
		</g>
		<linearGradient id="XMLID_23_" gradientUnits="userSpaceOnUse" x1="286.9405" y1="426.4172" x2="99.5192" y2="101.794">
			<stop  offset="7.130200e-003" style="stop-color:#D9EDE3"/>
			<stop  offset="0.3508" style="stop-color:#D7ECE2"/>
			<stop  offset="0.5047" style="stop-color:#D0E7DE"/>
			<stop  offset="0.6208" style="stop-color:#C3DED6"/>
			<stop  offset="0.718" style="stop-color:#B1D2CC"/>
			<stop  offset="0.8032" style="stop-color:#99C2BE"/>
			<stop  offset="0.8801" style="stop-color:#7DAEAE"/>
			<stop  offset="0.9492" style="stop-color:#5B979A"/>
			<stop  offset="1" style="stop-color:#3D8389"/>
		</linearGradient>
		<path id="XMLID_121_" class="st9" d="M-14.5,167.6c54-15.1,371.5,8.3,440.4,80.8s-3.2,99-3.2,99L-1.8,354L-14.5,167.6z"/>
	</g>
</g>
</svg>
