<?xml version="1.0" encoding="utf-8"?>
<!-- Generator: Adobe Illustrator 19.0.0, SVG Export Plug-In . SVG Version: 6.00 Build 0)  -->
<svg version="1.1" id="图层_1" xmlns="http://www.w3.org/2000/svg" xmlns:xlink="http://www.w3.org/1999/xlink" x="0px" y="0px"
	 viewBox="0 0 360 568" style="enable-background:new 0 0 360 568;" xml:space="preserve">
<style type="text/css">
	.st0{clip-path:url(#XMLID_35_);}
	.st1{fill:#FFFFFF;}
	.st2{fill:#F2F2F2;}
	.st3{fill:#00AF73;}
	.st4{fill:#999999;}
	.st5{fill:none;stroke:#78A6D1;stroke-width:4;stroke-miterlimit:10;}
	.st6{fill:none;stroke:#78A6D1;stroke-miterlimit:10;}
	.st7{fill:#78A6D1;}
</style>
<g id="XMLID_1050_">
	<g>
		<defs>
			<rect id="XMLID_333_" y="0" width="360" height="568"/>
		</defs>
		<clipPath id="XMLID_35_">
			<use xlink:href="#XMLID_333_"  style="overflow:visible;"/>
		</clipPath>
		<g id="XMLID_985_" class="st0">
			<g id="XMLID_1187_">
				<g id="XMLID_690_">
					
						<image style="overflow:visible;opacity:0.12;enable-background:new    ;" width="971" height="1096" id="XMLID_293_" xlink:href="FD7AAF9C.png"  transform="matrix(0.239 0 0 0.239 216.6817 428.4221)">
					</image>
					<g id="XMLID_125_">
						<g id="XMLID_249_">
							<path id="XMLID_272_" class="st1" d="M409.3,632.1L296.2,658c-6.5,1.5-12.9-2.6-14.4-9l-34.7-152.1c-1.5-6.5,2.6-12.9,9-14.4
								l113.1-25.8c6.5-1.5,12.9,2.6,14.4,9l34.7,152.1C419.8,624.2,415.7,630.6,409.3,632.1z"/>
							<g id="XMLID_267_">
								
									<rect id="XMLID_271_" x="268.9" y="491" transform="matrix(-0.9749 0.2227 -0.2227 -0.9749 681.0671 951.2312)" class="st2" width="36" height="46"/>
								<g id="XMLID_268_">
									<path id="XMLID_270_" class="st3" d="M287.3,516.2L287.3,516.2C287.4,516.2,287.4,516.2,287.3,516.2
										C287.4,516.2,287.4,516.2,287.3,516.2L287.3,516.2c8.7-2.1,4.7-14.2,4.7-14.2c-0.1-0.5-0.3-1-0.4-1.4
										c-2.9-8.3-16-5.3-14.8,3.5c0.1,0.4,0.1,0.9,0.2,1.4C277,505.4,278.6,518.1,287.3,516.2z"/>
									<path id="XMLID_269_" class="st3" d="M298.5,518.5c-7-1-14.3,0.6-20.2,4.6c-3.6,2.4-6.6,5.6-5.7,9.3l1.7,7.5l17.5-4l17.5-4
										l-1.7-7.5C306.9,520.7,302.8,519.1,298.5,518.5z"/>
								</g>
							</g>
							
								<rect id="XMLID_266_" x="276" y="536.9" transform="matrix(-0.9749 0.2227 -0.2227 -0.9749 770.1648 994.9756)" class="st4" width="106" height="8"/>
							
								<rect id="XMLID_265_" x="279.1" y="550.6" transform="matrix(-0.9749 0.2227 -0.2227 -0.9749 779.3615 1021.3448)" class="st4" width="106" height="8"/>
							
								<rect id="XMLID_264_" x="282.9" y="570.1" transform="matrix(-0.9749 0.2227 -0.2227 -0.9749 738.8484 1064.9081)" class="st4" width="53" height="8"/>
							
								<rect id="XMLID_263_" x="285.6" y="580.1" transform="matrix(-0.9749 0.2227 -0.2227 -0.9749 779.2139 1080.3589)" class="st4" width="86.2" height="8"/>
							
								<rect id="XMLID_252_" x="288.4" y="591.5" transform="matrix(-0.9749 0.2227 -0.2227 -0.9749 806.8204 1100.0773)" class="st4" width="106" height="8"/>
							
								<rect id="XMLID_251_" x="292.4" y="612.6" transform="matrix(-0.9749 0.2227 -0.2227 -0.9749 753.4579 1148.277)" class="st4" width="39.2" height="8"/>
							
								<rect id="XMLID_250_" x="294.7" y="618.8" transform="matrix(-0.9749 0.2227 -0.2227 -0.9749 825.3359 1152.5623)" class="st4" width="106" height="8"/>
						</g>
					</g>
				</g>
				<g id="XMLID_967_">
					<circle id="XMLID_970_" class="st5" cx="344" cy="496.3" r="22.6"/>
					<circle id="XMLID_969_" class="st6" cx="344" cy="496.3" r="18.5"/>
					<g id="XMLID_968_">
						<path id="XMLID_325_" class="st7" d="M333.8,501.7l5.6-0.8l0.3,1.8l-8.4,1.2l-0.2-1.3l4.4-8.6l-5.5,0.8l-0.3-1.8l8.3-1.1
							l0.2,1.3L333.8,501.7z"/>
						<path id="XMLID_327_" class="st7" d="M343.9,490.9l2.3-0.3l1.1,7.7c0.1,0.6,0.1,1.1-0.1,1.5c-0.1,0.5-0.3,0.9-0.6,1.2
							c-0.3,0.4-0.6,0.6-1.1,0.9c-0.4,0.2-0.9,0.4-1.4,0.4c-0.5,0.1-1,0.1-1.5,0s-0.9-0.2-1.3-0.5c-0.4-0.2-0.7-0.6-0.9-1
							c-0.2-0.4-0.4-0.9-0.5-1.5l2.3-0.3c0,0.3,0.1,0.5,0.2,0.7s0.2,0.3,0.4,0.5c0.1,0.1,0.3,0.2,0.5,0.2s0.4,0,0.6,0
							c0.4-0.1,0.8-0.3,1-0.6s0.3-0.8,0.2-1.3L343.9,490.9z"/>
						<path id="XMLID_329_" class="st7" d="M356.5,489.2l1,7.3c0.1,0.6,0.1,1.2-0.1,1.7c-0.1,0.5-0.4,1-0.7,1.3
							c-0.3,0.4-0.7,0.7-1.2,0.9c-0.5,0.2-1,0.4-1.7,0.5c-0.6,0.1-1.2,0.1-1.7,0s-1-0.3-1.4-0.6c-0.4-0.3-0.8-0.6-1-1.1
							c-0.3-0.5-0.5-1-0.5-1.6l-1-7.3l2.3-0.3l1,7.3c0.1,0.7,0.3,1.2,0.7,1.5s0.9,0.4,1.5,0.3s1.1-0.3,1.4-0.7
							c0.3-0.4,0.4-0.9,0.3-1.7l-1-7.3L356.5,489.2z"/>
					</g>
				</g>
			</g>
			<g id="XMLID_1171_">
				
					<image style="overflow:visible;opacity:0.12;enable-background:new    ;" width="1163" height="1150" id="XMLID_287_" xlink:href="FD7AAFA4.png"  transform="matrix(0.2387 0 0 0.2387 245.8648 164.6952)">
				</image>
				<g id="XMLID_116_">
					<g id="XMLID_233_">
						<path id="XMLID_248_" class="st1" d="M490.4,316.3l-77,86.7c-4.4,5-12,5.4-16.9,1L279.8,300.5c-5-4.4-5.4-12-1-16.9l77-86.7
							c4.4-5,12-5.4,16.9-1l116.7,103.6C494.4,303.8,494.8,311.4,490.4,316.3z"/>
						<g id="XMLID_243_">
							
								<rect id="XMLID_247_" x="304.2" y="268.3" transform="matrix(-0.664 0.7478 -0.7478 -0.664 753.9922 243.6901)" class="st2" width="36" height="46"/>
							<g id="XMLID_244_">
								<path id="XMLID_246_" class="st3" d="M323.9,292.8L323.9,292.8L323.9,292.8L323.9,292.8L323.9,292.8
									c5.9-6.8-4.5-14.3-4.5-14.3c-0.4-0.3-0.8-0.7-1.2-0.9c-7.2-5.1-16.1,5-10,11.5c0.3,0.3,0.6,0.6,1,1
									C309.2,290,317.9,299.5,323.9,292.8z"/>
								<path id="XMLID_245_" class="st3" d="M334.3,288.2c-6.3,3.2-11.3,8.8-13.7,15.5c-1.5,4-2.1,8.4,0.8,10.9l5.8,5.1l12-13.5
									l12-13.5l-5.8-5.1C342.4,285.1,338.1,286.2,334.3,288.2z"/>
							</g>
						</g>
						
							<rect id="XMLID_242_" x="319.1" y="284.8" transform="matrix(-0.664 0.7478 -0.7478 -0.664 835.1552 202.2326)" class="st4" width="106" height="8"/>
						
							<rect id="XMLID_241_" x="329.6" y="294" transform="matrix(-0.664 0.7478 -0.7478 -0.664 859.5514 209.8191)" class="st4" width="106" height="8"/>
						
							<rect id="XMLID_240_" x="348.9" y="323.2" transform="matrix(-0.664 0.7478 -0.7478 -0.664 869.4041 263.7108)" class="st4" width="53" height="8"/>
						
							<rect id="XMLID_239_" x="353.9" y="320.1" transform="matrix(-0.664 0.7478 -0.7478 -0.664 902.8784 242.4437)" class="st4" width="86.2" height="8"/>
						
							<rect id="XMLID_238_" x="361" y="321.9" transform="matrix(-0.664 0.7478 -0.7478 -0.664 932.6851 232.7525)" class="st4" width="106" height="8"/>
						
							<rect id="XMLID_235_" x="382.6" y="356.2" transform="matrix(-0.664 0.7478 -0.7478 -0.664 938.6699 298.6545)" class="st4" width="39.2" height="8"/>
						
							<rect id="XMLID_234_" x="381.9" y="340.5" transform="matrix(-0.664 0.7478 -0.7478 -0.664 981.2487 248.0451)" class="st4" width="106" height="8"/>
					</g>
				</g>
			</g>
			<g id="XMLID_912_">
				
					<image style="overflow:visible;opacity:0.12;enable-background:new    ;" width="1163" height="1150" id="XMLID_288_" xlink:href="FD7AAFA7.png"  transform="matrix(0.2387 0 0 0.2387 252.5617 207.6781)">
				</image>
				<g id="XMLID_118_">
					<g id="XMLID_217_">
						<path id="XMLID_232_" class="st1" d="M497.1,359.3l-77,86.7c-4.4,5-12,5.4-16.9,1L286.5,343.5c-5-4.4-5.4-12-1-16.9l77-86.7
							c4.4-5,12-5.4,16.9-1l116.7,103.6C501.1,346.7,501.5,354.3,497.1,359.3z"/>
						<g id="XMLID_227_">
							
								<rect id="XMLID_231_" x="310.9" y="311.2" transform="matrix(-0.664 0.7478 -0.7478 -0.664 797.138 310.154)" class="st2" width="36" height="46"/>
							<g id="XMLID_228_">
								<path id="XMLID_230_" class="st3" d="M330.6,335.8L330.6,335.8L330.6,335.8L330.6,335.8L330.6,335.8
									c5.9-6.8-4.5-14.3-4.5-14.3c-0.4-0.3-0.8-0.7-1.2-0.9c-7.2-5.1-16.1,5-10,11.5c0.3,0.3,0.6,0.6,1,1
									C315.9,333,324.6,342.5,330.6,335.8z"/>
								<path id="XMLID_229_" class="st3" d="M341,331.2c-6.3,3.2-11.3,8.8-13.7,15.5c-1.5,4-2.1,8.4,0.8,10.9l5.8,5.1l12-13.5
									l12-13.5l-5.8-5.1C349.1,328.1,344.8,329.2,341,331.2z"/>
							</g>
						</g>
						
							<rect id="XMLID_226_" x="325.8" y="327.8" transform="matrix(-0.664 0.7478 -0.7478 -0.664 878.4752 268.7509)" class="st4" width="106" height="8"/>
						
							<rect id="XMLID_225_" x="336.3" y="337.1" transform="matrix(-0.664 0.7478 -0.7478 -0.664 902.8168 276.5115)" class="st4" width="106" height="8"/>
						
							<rect id="XMLID_224_" x="355.7" y="366.2" transform="matrix(-0.664 0.7478 -0.7478 -0.664 912.7242 330.2293)" class="st4" width="53" height="8"/>
						
							<rect id="XMLID_223_" x="360.5" y="363" transform="matrix(-0.664 0.7478 -0.7478 -0.664 946.0244 308.9077)" class="st4" width="86.2" height="8"/>
						
							<rect id="XMLID_222_" x="367.7" y="364.9" transform="matrix(-0.664 0.7478 -0.7478 -0.664 975.8309 299.2164)" class="st4" width="106" height="8"/>
						
							<rect id="XMLID_221_" x="389.3" y="399.2" transform="matrix(-0.664 0.7478 -0.7478 -0.664 981.9899 365.173)" class="st4" width="39.2" height="8"/>
						
							<rect id="XMLID_218_" x="388.6" y="383.5" transform="matrix(-0.664 0.7478 -0.7478 -0.664 1024.5686 314.5634)" class="st4" width="106" height="8"/>
					</g>
				</g>
			</g>
			<g id="XMLID_1232_">
				<g id="XMLID_1237_">
					
						<image style="overflow:visible;opacity:0.12;enable-background:new    ;" width="908" height="1054" id="XMLID_289_" xlink:href="FD7AAFA5.png"  transform="matrix(0.2386 0 0 0.2386 -1.2255 410.099)">
					</image>
					<g id="XMLID_120_">
						<g id="XMLID_203_">
							<path id="XMLID_216_" class="st1" d="M174.5,617L59.1,629.5c-6.6,0.7-12.5-4-13.2-10.6L29,463.8c-0.7-6.6,4-12.5,10.6-13.2
								L155,438c6.6-0.7,12.5,4,13.2,10.6l16.9,155.1C185.8,610.3,181,616.2,174.5,617z"/>
							<g id="XMLID_211_">
								
									<rect id="XMLID_215_" x="48.6" y="462.4" transform="matrix(-0.9941 0.1082 -0.1082 -0.9941 185.3295 960.7123)" class="st2" width="36" height="46"/>
								<g id="XMLID_212_">
									<path id="XMLID_214_" class="st3" d="M66.8,487.7L66.8,487.7L66.8,487.7L66.8,487.7L66.8,487.7c8.9-1,6.3-13.6,6.3-13.6
										c-0.1-0.5-0.1-1-0.2-1.5c-1.9-8.6-15.3-7.1-15.1,1.8c0,0.4,0,0.9,0.1,1.4C57.8,475.7,57.9,488.6,66.8,487.7z"/>
									<path id="XMLID_213_" class="st3" d="M77.6,491.3c-6.9-1.8-14.3-1-20.6,2.2c-3.8,2-7.2,4.8-6.8,8.6l0.8,7.7l17.9-1.9
										l17.9-1.9l-0.8-7.7C85.7,494.4,81.8,492.4,77.6,491.3z"/>
								</g>
							</g>
							
								<rect id="XMLID_210_" x="52.2" y="513.1" transform="matrix(-0.9941 0.1082 -0.1082 -0.9941 265.7384 1019.7582)" class="st4" width="106" height="8"/>
							
								<rect id="XMLID_209_" x="53.8" y="527" transform="matrix(-0.9941 0.1082 -0.1082 -0.9941 270.4271 1047.2848)" class="st4" width="106" height="8"/>
							
								<rect id="XMLID_208_" x="55.4" y="543.8" transform="matrix(-0.9941 0.1082 -0.1082 -0.9941 222.5976 1083.4944)" class="st4" width="53" height="8"/>
							
								<rect id="XMLID_207_" x="56.8" y="555.9" transform="matrix(-0.9941 0.1082 -0.1082 -0.9941 259.7963 1105.6807)" class="st4" width="86.2" height="8"/>
							
								<rect id="XMLID_206_" x="58.3" y="568.7" transform="matrix(-0.9941 0.1082 -0.1082 -0.9941 283.9022 1129.9614)" class="st4" width="106" height="8"/>
							
								<rect id="XMLID_205_" x="60" y="586.3" transform="matrix(-0.9941 0.1082 -0.1082 -0.9941 222.6101 1168.4894)" class="st4" width="39.2" height="8"/>
							
								<rect id="XMLID_204_" x="61.3" y="596.6" transform="matrix(-0.9941 0.1082 -0.1082 -0.9941 292.918 1185.2761)" class="st4" width="106" height="8"/>
						</g>
					</g>
				</g>
				<g id="XMLID_1233_">
					<circle id="XMLID_1236_" class="st5" cx="118.7" cy="476.4" r="22.6"/>
					<circle id="XMLID_1235_" class="st6" cx="118.7" cy="476.4" r="18.5"/>
					<g id="XMLID_1234_">
						<path id="XMLID_319_" class="st7" d="M108.7,482.2l5.6-0.9l0.3,1.8l-8.4,1.3l-0.2-1.3l4.2-8.7l-5.4,0.9l-0.3-1.8l8.3-1.3
							l0.2,1.3L108.7,482.2z"/>
						<path id="XMLID_321_" class="st7" d="M118.7,471.1l2.3-0.4l1.2,7.6c0.1,0.5,0.1,1.1,0,1.5c-0.1,0.5-0.3,0.9-0.6,1.2
							s-0.6,0.7-1.1,0.9c-0.4,0.2-0.9,0.4-1.4,0.5s-1,0.1-1.5,0s-0.9-0.2-1.3-0.4c-0.4-0.2-0.7-0.5-0.9-0.9
							c-0.3-0.4-0.4-0.9-0.5-1.5l2.3-0.4c0,0.3,0.1,0.5,0.2,0.7s0.2,0.3,0.4,0.4c0.1,0.1,0.3,0.2,0.5,0.2s0.4,0,0.6,0
							c0.4-0.1,0.8-0.3,1-0.6c0.2-0.3,0.3-0.8,0.2-1.3L118.7,471.1z"/>
						<path id="XMLID_323_" class="st7" d="M131.2,469.1l1.2,7.3c0.1,0.6,0.1,1.2,0,1.7s-0.4,1-0.7,1.4s-0.7,0.7-1.2,1
							s-1,0.4-1.7,0.5c-0.6,0.1-1.2,0.1-1.7,0s-1-0.3-1.5-0.5s-0.8-0.6-1.1-1.1s-0.5-1-0.6-1.6l-1.2-7.3l2.3-0.4l1.2,7.3
							c0.1,0.7,0.4,1.2,0.8,1.5s0.9,0.4,1.5,0.3c0.6-0.1,1.1-0.3,1.4-0.7c0.3-0.4,0.4-0.9,0.3-1.7l-1.2-7.3L131.2,469.1z"/>
					</g>
				</g>
			</g>
			<g id="XMLID_1186_">
				<g id="XMLID_758_">
					
						<image style="overflow:visible;opacity:0.12;enable-background:new    ;" width="1013" height="1121" id="XMLID_290_" xlink:href="FD7AAFAB.png"  transform="matrix(0.2388 0 0 0.2388 -72.763 375.0396)">
					</image>
					<g id="XMLID_122_">
						<g id="XMLID_22_">
							<path id="XMLID_201_" class="st1" d="M130.4,575.2L19.7,610c-6.3,2-13.1-1.5-15-7.8l-46.8-148.8c-2-6.3,1.5-13.1,7.8-15
								l110.7-34.8c6.3-2,13.1,1.5,15,7.8l46.8,148.8C140.2,566.5,136.7,573.2,130.4,575.2z"/>
							<g id="XMLID_195_">
								
									<rect id="XMLID_200_" x="-19.1" y="444.2" transform="matrix(-0.954 0.2999 -0.2999 -0.954 137.9755 913.2726)" class="st2" width="36" height="46"/>
								<g id="XMLID_196_">
									<path id="XMLID_198_" class="st3" d="M-0.4,469.4L-0.4,469.4L-0.4,469.4L-0.4,469.4L-0.4,469.4c8.6-2.8,3.5-14.6,3.5-14.6
										c-0.2-0.5-0.3-1-0.5-1.4c-3.6-8.1-16.3-4-14.5,4.7c0.1,0.4,0.2,0.9,0.4,1.3C-11.6,459.5-9,472-0.4,469.4z"/>
									<path id="XMLID_197_" class="st3" d="M10.9,470.8c-7.1-0.5-14.2,1.8-19.7,6.2c-3.4,2.7-6.1,6.1-5,9.8l2.3,7.4l17.2-5.4
										l17.2-5.4l-2.3-7.4C19.4,472.4,15.2,471.1,10.9,470.8z"/>
								</g>
							</g>
							
								<rect id="XMLID_194_" x="-10" y="486.7" transform="matrix(-0.954 0.2999 -0.2999 -0.954 231.1765 945.9622)" class="st4" width="106" height="8"/>
							
								<rect id="XMLID_193_" x="-5.8" y="500.1" transform="matrix(-0.954 0.2999 -0.2999 -0.954 243.4275 970.8773)" class="st4" width="106" height="8"/>
							
								<rect id="XMLID_192_" x="-0.4" y="521.4" transform="matrix(-0.954 0.2999 -0.2999 -0.954 208.5879 1018.8372)" class="st4" width="53" height="8"/>
							
								<rect id="XMLID_26_" x="3.1" y="529.8" transform="matrix(-0.954 0.2999 -0.2999 -0.954 250.3864 1029.1844)" class="st4" width="86.2" height="8"/>
							
								<rect id="XMLID_25_" x="6.8" y="540.2" transform="matrix(-0.954 0.2999 -0.2999 -0.954 280.0931 1045.4459)" class="st4" width="106" height="8"/>
							
								<rect id="XMLID_24_" x="12.6" y="563.5" transform="matrix(-0.954 0.2999 -0.2999 -0.954 233.1002 1099.2319)" class="st4" width="39.2" height="8"/>
							
								<rect id="XMLID_23_" x="15.2" y="566.9" transform="matrix(-0.954 0.2999 -0.2999 -0.954 304.5079 1095.0991)" class="st4" width="106" height="8"/>
						</g>
					</g>
				</g>
				<g id="XMLID_1003_">
					<circle id="XMLID_1006_" class="st5" cx="48.3" cy="448.3" r="22.6"/>
					<circle id="XMLID_1005_" class="st6" cx="48.3" cy="448.3" r="18.5"/>
					<g id="XMLID_1004_">
						<path id="XMLID_313_" class="st7" d="M39.6,455.8l5.3-2l0.6,1.7l-8,3l-0.5-1.3l2.4-9.4l-5.2,1.9l-0.6-1.7l7.8-2.9l0.5,1.2
							L39.6,455.8z"/>
						<path id="XMLID_315_" class="st7" d="M47.2,443l2.2-0.8l2.7,7.2c0.2,0.5,0.3,1,0.3,1.5s-0.1,0.9-0.3,1.3s-0.5,0.8-0.9,1.1
							c-0.4,0.3-0.8,0.6-1.3,0.7c-0.5,0.2-1,0.3-1.5,0.3s-0.9,0-1.3-0.2c-0.4-0.1-0.8-0.4-1.1-0.7s-0.6-0.8-0.8-1.3l2.2-0.8
							c0.1,0.3,0.2,0.5,0.4,0.7c0.1,0.2,0.3,0.3,0.4,0.4c0.2,0.1,0.3,0.1,0.5,0.1s0.4-0.1,0.6-0.1c0.4-0.2,0.7-0.4,0.8-0.8
							s0.1-0.8-0.1-1.3L47.2,443z"/>
						<path id="XMLID_317_" class="st7" d="M59.2,438.6l2.6,6.9c0.2,0.6,0.3,1.2,0.3,1.7s-0.2,1-0.4,1.5c-0.2,0.4-0.6,0.8-1,1.2
							c-0.4,0.3-0.9,0.6-1.5,0.8c-0.6,0.2-1.2,0.3-1.7,0.4c-0.6,0-1.1-0.1-1.5-0.2c-0.5-0.2-0.9-0.5-1.3-0.9
							c-0.4-0.4-0.7-0.9-0.9-1.5l-2.6-6.9l2.2-0.8l2.6,6.9c0.3,0.7,0.6,1.1,1,1.3c0.4,0.2,1,0.2,1.5,0c0.6-0.2,1-0.5,1.2-1
							c0.2-0.4,0.2-1-0.1-1.7l-2.6-6.9L59.2,438.6z"/>
					</g>
				</g>
			</g>
			<g id="XMLID_1185_">
				<g id="XMLID_651_">
					
						<image style="overflow:visible;opacity:0.12;enable-background:new    ;" width="779" height="400" id="XMLID_291_" xlink:href="FD7AAF9D.png"  transform="matrix(0.3836 0 0 0.3836 1.6032 349.117)">
					</image>
					<g id="XMLID_123_">
						<g id="XMLID_175_">
							<path id="XMLID_202_" class="st1" d="M196.6,520.6l-115-15.3c-6.6-0.9-11.2-6.9-10.3-13.5l20.6-154.6
								c0.9-6.6,6.9-11.2,13.5-10.3l115,15.3c6.6,0.9,11.2,6.9,10.3,13.5l-20.6,154.6C209.2,516.8,203.2,521.5,196.6,520.6z"/>
							<g id="XMLID_18_">
								
									<rect id="XMLID_199_" x="105.2" y="344.1" transform="matrix(-0.9913 -0.1319 0.1319 -0.9913 196.9377 747.2635)" class="st2" width="36" height="46"/>
								<g id="XMLID_19_">
									<path id="XMLID_21_" class="st3" d="M122.8,369.4L122.8,369.4C122.9,369.4,122.9,369.4,122.8,369.4
										C122.9,369.4,122.9,369.4,122.8,369.4L122.8,369.4c8.9,1.1,9.3-11.7,9.3-11.7c0.1-0.5,0.1-1,0.1-1.5
										c0.2-8.8-13.1-10.5-15.1-1.9c-0.1,0.4-0.2,0.9-0.2,1.4C117,355.6,114,368.1,122.8,369.4z"/>
									<path id="XMLID_20_" class="st3" d="M132.5,375.4c-6.2-3.4-13.6-4.4-20.5-2.7c-4.2,1-8.1,3-8.6,6.7l-1,7.6l17.8,2.4
										l17.8,2.4l1-7.6C139.6,380.4,136.3,377.5,132.5,375.4z"/>
								</g>
							</g>
							
								<rect id="XMLID_17_" x="100.2" y="403.1" transform="matrix(-0.9913 -0.1319 0.1319 -0.9913 251.3967 830.8748)" class="st4" width="106" height="8"/>
							
								<rect id="XMLID_16_" x="98.4" y="417" transform="matrix(-0.9913 -0.1319 0.1319 -0.9913 245.9724 858.3287)" class="st4" width="106" height="8"/>
							
								<rect id="XMLID_15_" x="96.7" y="427.3" transform="matrix(-0.9913 -0.1319 0.1319 -0.9913 188.4825 875.1024)" class="st4" width="53" height="8"/>
							
								<rect id="XMLID_14_" x="94.7" y="443.4" transform="matrix(-0.9913 -0.1319 0.1319 -0.9913 215.4259 909.083)" class="st4" width="86.2" height="8"/>
							
								<rect id="XMLID_178_" x="92.8" y="458.6" transform="matrix(-0.9913 -0.1319 0.1319 -0.9913 229.3467 940.4162)" class="st4" width="106" height="8"/>
							
								<rect id="XMLID_177_" x="91.3" y="468.1" transform="matrix(-0.9913 -0.1319 0.1319 -0.9913 158.5872 954.7444)" class="st4" width="39.2" height="8"/>
							
								<rect id="XMLID_176_" x="89.1" y="486.3" transform="matrix(-0.9913 -0.1319 0.1319 -0.9913 218.3415 995.0892)" class="st4" width="106" height="8"/>
						</g>
					</g>
				</g>
				<g id="XMLID_1036_">
					<circle id="XMLID_1053_" class="st5" cx="180.6" cy="372.3" r="22.6"/>
					<circle id="XMLID_1038_" class="st6" cx="180.6" cy="372.3" r="18.5"/>
					<g id="XMLID_1037_">
						<path id="XMLID_307_" class="st7" d="M171.1,378.9l5.4-1.4l0.5,1.8l-8.2,2.1l-0.3-1.3l3.3-9.1l-5.3,1.4l-0.5-1.8l8.1-2.1
							l0.3,1.3L171.1,378.9z"/>
						<path id="XMLID_309_" class="st7" d="M180,366.9l2.2-0.6l2,7.5c0.1,0.5,0.2,1,0.1,1.5s-0.2,0.9-0.5,1.3c-0.2,0.4-0.6,0.7-1,1
							s-0.9,0.5-1.4,0.6s-1,0.2-1.5,0.2s-0.9-0.1-1.3-0.3c-0.4-0.2-0.7-0.5-1-0.8c-0.3-0.4-0.5-0.8-0.7-1.4l2.2-0.6
							c0.1,0.3,0.2,0.5,0.3,0.7s0.3,0.3,0.4,0.4c0.2,0.1,0.3,0.1,0.5,0.1s0.4,0,0.6-0.1c0.4-0.1,0.7-0.3,0.9-0.7
							c0.2-0.4,0.2-0.8,0.1-1.3L180,366.9z"/>
						<path id="XMLID_311_" class="st7" d="M192.3,363.7l1.9,7.1c0.2,0.6,0.2,1.2,0.1,1.7c-0.1,0.5-0.3,1-0.5,1.4
							c-0.3,0.4-0.7,0.8-1.1,1.1c-0.5,0.3-1,0.5-1.6,0.7s-1.2,0.2-1.7,0.2s-1-0.2-1.5-0.4c-0.4-0.2-0.8-0.5-1.2-1
							c-0.3-0.4-0.6-0.9-0.7-1.6l-1.9-7.1l2.2-0.6l1.9,7.1c0.2,0.7,0.5,1.2,0.9,1.4c0.4,0.2,0.9,0.3,1.5,0.1c0.6-0.2,1-0.4,1.3-0.9
							c0.3-0.4,0.3-1,0.1-1.7l-1.9-7.1L192.3,363.7z"/>
					</g>
				</g>
			</g>
			<g id="XMLID_1066_">
				<g id="XMLID_1152_">
					
						<image style="overflow:visible;opacity:0.12;enable-background:new    ;" width="1513" height="333" id="XMLID_292_" xlink:href="FD7AAF9B.png"  transform="matrix(0.2523 0 0 0.2523 -92.8264 -99.2756)">
					</image>
					<g id="XMLID_124_">
						<g id="XMLID_219_">
							<path id="XMLID_262_" class="st1" d="M74.1,45.1L-7-37.9c-4.6-4.7-4.5-12.3,0.2-17l111.6-109c4.7-4.6,12.3-4.5,17,0.2
								l81.1,83c4.6,4.7,4.5,12.3-0.2,17L91.1,45.3C86.4,49.9,78.8,49.8,74.1,45.1z"/>
							<g id="XMLID_257_">
								
									<rect id="XMLID_261_" x="93.1" y="-144" transform="matrix(-0.6987 -0.7154 0.7154 -0.6987 275.2698 -125.9743)" class="st2" width="36" height="46"/>
								<g id="XMLID_258_">
									<path id="XMLID_260_" class="st3" d="M109.4-119.4L109.4-119.4L109.4-119.4L109.4-119.4L109.4-119.4
										c6.3,6.4,14.6-3.5,14.6-3.5c0.4-0.4,0.7-0.7,1-1.1c5.6-6.8-3.8-16.4-10.7-10.8c-0.3,0.3-0.7,0.6-1,0.9
										C113.2-133.9,103.2-125.8,109.4-119.4z"/>
									<path id="XMLID_259_" class="st3" d="M113.3-108.7c-2.8-6.5-8-11.9-14.5-14.8c-3.9-1.8-8.2-2.7-10.9,0l-5.5,5.4L95-105.2
										l12.6,12.9l5.5-5.4C115.7-100.4,114.9-104.7,113.3-108.7z"/>
								</g>
							</g>
							
								<rect id="XMLID_256_" x="57" y="-75" transform="matrix(-0.6987 -0.7154 0.7154 -0.6987 237.6321 -41.9129)" class="st4" width="106" height="8"/>
							
								<rect id="XMLID_255_" x="47" y="-65.2" transform="matrix(-0.6987 -0.7154 0.7154 -0.6987 213.6017 -32.4235)" class="st4" width="106" height="8"/>
							
								<rect id="XMLID_254_" x="45" y="-74.4" transform="matrix(-0.6987 -0.7154 0.7154 -0.6987 171.7655 -68.3827)" class="st4" width="53" height="8"/>
							
								<rect id="XMLID_253_" x="29.9" y="-52.7" transform="matrix(-0.6987 -0.7154 0.7154 -0.6987 158.8425 -30.5768)" class="st4" width="86.2" height="8"/>
							
								<rect id="XMLID_237_" x="16.9" y="-35.9" transform="matrix(-0.6987 -0.7154 0.7154 -0.6987 141.6145 -4.1945)" class="st4" width="106" height="8"/>
							
								<rect id="XMLID_236_" x="17" y="-50" transform="matrix(-0.6987 -0.7154 0.7154 -0.6987 95.0828 -51.9262)" class="st4" width="39.2" height="8"/>
							
								<rect id="XMLID_220_" x="-3.1" y="-16.3" transform="matrix(-0.6987 -0.7154 0.7154 -0.6987 93.5536 14.7842)" class="st4" width="106" height="8"/>
						</g>
					</g>
				</g>
				<g id="XMLID_1067_">
					<circle id="XMLID_1084_" class="st5" cx="153.1" cy="-81.5" r="22.6"/>
					<circle id="XMLID_1069_" class="st6" cx="153.1" cy="-81.5" r="18.5"/>
					
						<text id="XMLID_1068_" transform="matrix(0.9174 0.3979 -0.3979 0.9174 137.6105 -81.7817)" class="st7" style="font-family:'Roboto-Bold'; font-size:15.6969px;">ZJU</text>
				</g>
			</g>
		</g>
	</g>
</g>
</svg>
