<?xml version="1.0" standalone="no"?><!DOCTYPE svg PUBLIC "-//W3C//DTD SVG 1.1//EN" "http://www.w3.org/Graphics/SVG/1.1/DTD/svg11.dtd"><svg t="1507854289048" class="icon" style="" viewBox="0 0 1024 1024" version="1.1" xmlns="http://www.w3.org/2000/svg" p-id="2375" xmlns:xlink="http://www.w3.org/1999/xlink" width="200" height="200"><defs><style type="text/css"></style></defs><path d="M862.778202 640.174593c-17.774874 0-32.175395-13.876101-32.175395-30.980825L830.602807 414.807258c0-17.134486 14.399495-30.981851 32.175395-30.981851 17.773847 0 32.203104 13.847365 32.203104 30.981851l0 194.385484C894.981306 626.298492 880.553076 640.174593 862.778202 640.174593zM380.771249 151.679606 380.771249 151.679606l-56.204315-70.516577c-3.83925-4.829593-2.675467-11.578298 2.619023-15.097354 5.293464-3.520082 12.682557-2.443532 16.523859 2.385035l58.093665 72.901612c33.367912-14.662218 70.603809-22.865138 109.905574-22.865138 39.302791 0 76.509952 8.203946 109.875812 22.865138l58.094691-72.901612c3.83925-4.829593 11.258104-5.905117 16.552594-2.385035 5.265755 3.520082 6.429537 10.268787 2.589261 15.097354l-56.204315 70.516577c64.726402 35.578483 111.504491 96.640099 124.53803 168.465162L256.233218 320.144767C269.295493 248.319705 316.042794 187.258088 380.771249 151.679606zM622.341222 254.749242 622.341222 254.749242c17.716377 0 32.058401-13.439939 32.058401-29.992534 0-16.552594-14.34305-29.963798-32.058401-29.963798-17.65788 0-32.028639 13.411204-32.028639 29.963798C590.312583 241.309303 604.683343 254.749242 622.341222 254.749242zM401.01839 254.749242 401.01839 254.749242c17.716377 0 32.028639-13.439939 32.028639-29.992534 0-16.552594-14.312263-29.963798-32.028639-29.963798-17.687641 0-32.029665 13.411204-32.029665 29.963798C368.988724 241.309303 383.330748 254.749242 401.01839 254.749242zM161.221798 640.174593 161.221798 640.174593c-17.803609 0-32.20413-13.876101-32.20413-30.980825L129.017668 414.807258c0-17.134486 14.400521-30.981851 32.20413-30.981851 17.773847 0 32.175395 13.847365 32.175395 30.981851l0 194.385484C193.397193 626.298492 178.995645 640.174593 161.221798 640.174593zM766.691258 718.719625 766.691258 718.719625c0 31.011613-25.658625 56.117082-57.3096 56.117082l-40.116617 0 0 131.868626c0 29.440404-24.349114 53.294859-54.42888 53.294859-30.079766 0-54.42888-23.854455-54.42888-53.294859L560.407282 774.836707l-97.425191 0 0 131.868626c0 29.440404-24.378875 53.294859-54.429906 53.294859-30.050004 0-54.42888-23.854455-54.42888-53.294859L354.123306 774.836707l-40.116617 0c-31.621213 0-57.308573-25.10547-57.308573-56.117082L256.698115 384.348801l509.992117 0L766.690232 718.719625z" p-id="2376" fill="#00ae73"></path></svg>