<?xml version="1.0" standalone="no"?><!DOCTYPE svg PUBLIC "-//W3C//DTD SVG 1.1//EN" "http://www.w3.org/Graphics/SVG/1.1/DTD/svg11.dtd"><svg t="1507854306278" class="icon" style="" viewBox="0 0 1515 1024" version="1.1" xmlns="http://www.w3.org/2000/svg" p-id="3082" xmlns:xlink="http://www.w3.org/1999/xlink" width="295.8984375" height="200"><defs><style type="text/css"></style></defs><path d="M1065.198466 658.852822c-26.287342-37.712658-39.424-80.201644-39.424-127.424877 0-43.050082 12.393205-82.48811 37.137534-118.293041 13.333041-19.427945 35.054466-41.899836 65.150247-67.429699-19.813699-24.372603-39.620384-43.421808-59.434082-57.140603-35.811945-24.758356-76.386192-37.137534-121.715726-37.137534-27.044822 0-60.002192 6.473644-98.851068 19.434959-37.333918 12.954301-64.575123 19.434959-81.716603 19.434959-12.954301 0-39.23463-5.709151-78.855014-17.141479-39.999123-11.432329-73.713973-17.141479-101.144548-17.141479-65.521973 0-119.61863 27.430575-162.282959 82.284712-43.050082 55.61863-64.575123 126.856767-64.575123 213.714411 0 92.188055 28.005699 187.995178 84.003068 287.428384 56.754849 98.661699 114.091836 148.003068 171.996932 148.003068 19.427945 0 44.572055-6.480658 75.425315-19.434959 30.860274-12.561534 57.905096-18.852822 81.148493-18.852822 24.758356 0 53.521534 6.094904 86.282521 18.284712 34.661699 12.175781 61.334795 18.270685 79.998247 18.270685 48.759233 0 97.714849-37.333918 146.852822-112.001753 31.996493-47.616 55.42926-95.232 70.284274-142.855014C1121.574575 720.566356 1091.485808 696.558466 1065.198466 658.852822z" p-id="3083" fill="#00ae73"></path><path d="M870.904986 217.14411c24.000877-24.000877 41.717479-50.288219 53.149808-78.855014 11.039562-28.573808 16.559342-54.482411 16.559342-77.718795 0-1.521973-0.084164-3.429699-0.287562-5.716164-0.175342-2.286466-0.273534-4.187178-0.273534-5.709151-0.385753-1.143233-0.862685-3.240329-1.430795-6.284274-0.56811-3.043945-1.045041-5.141041-1.430795-6.284274-67.043945 15.626521-114.659945 43.814575-142.855014 84.578192-28.566795 41.142356-43.428822 90.090959-44.572055 146.852822 25.522849-2.286466 45.329534-5.519781 59.427068-9.713973C829.769644 251.434082 850.326795 237.715288 870.904986 217.14411z" p-id="3084" fill="#00ae73"></path></svg>